<svg xmlns="http://www.w3.org/2000/svg" xmlns:xlink="http://www.w3.org/1999/xlink" width="123" height="35" viewBox="0 0 123 35">
    <defs>
        <path id="prefix__a" d="M0 0L29.498 0 29.498 34.679 0 34.679z"/>
        <path id="prefix__c" d="M0.003 0.035L17.723 0.035 17.723 25.804 0.003 25.804z"/>
    </defs>
    <g fill="none" fill-rule="evenodd">
        <g transform="translate(0 .037)">
            <mask id="prefix__b" fill="#fff">
                <use xlink:href="#prefix__a"/>
            </mask>
            <path fill="#000" d="M3.944 16.228c.071-.056.105-.08.138-.107 3.507-2.943 7.015-5.886 10.52-8.832.11-.093.171-.103.286-.006 3.5 2.942 7.003 5.88 10.507 8.818.043.036.078.094.165.09v-.206c-.005-.775-.013-1.55-.014-2.323l-.001-9.499c0-.263.03-.232-.24-.232H4.189c-.274 0-.236-.029-.236.234l-.008 10.992v1.07m21.592 5.324c.046-.137-.04-.243-.169-.351-3.496-2.929-6.99-5.86-10.48-8.795-.12-.1-.18-.079-.286.01-2.036 1.714-4.076 3.424-6.115 5.135-1.46 1.224-2.919 2.45-4.379 3.673-.085.072-.163.134-.152.27.048.588.077 1.177.182 1.759.133.736.349 1.435.911 1.972.36.343.737.67 1.131.974 2.545 1.968 5.386 3.365 8.434 4.36.1.033.187.026.285-.005 1.194-.383 2.36-.839 3.493-1.374 2.115-1 4.103-2.196 5.856-3.762.478-.427.804-.935.974-1.55.207-.746.26-1.512.315-2.316M14.755 0h14.478c.24 0 .24 0 .24.235l.001 13.5c0 1.353.001 2.706.014 4.058.012 1.18.021 2.36-.017 3.54-.036 1.13-.134 2.255-.407 3.359-.377 1.521-1.17 2.775-2.361 3.799-1.688 1.45-3.537 2.65-5.507 3.672-2.011 1.045-4.11 1.868-6.29 2.487-.096.028-.185.04-.285.012-3.203-.916-6.217-2.25-9.015-4.064-.996-.646-1.936-1.366-2.84-2.136C1.456 27.35.675 25.947.338 24.276.147 23.327.06 22.368.03 21.403-.034 19.29.024 17.175.017 15.06c-.001-.313.012-.626.012-.94L.03.27C.03-.04.01.002.295.002h14.46" mask="url(#prefix__b)"/>
        </g>
        <g transform="translate(105.255 6.42)">
            <mask id="prefix__d" fill="#fff">
                <use xlink:href="#prefix__c"/>
            </mask>
            <path fill="#000" d="M2.545 17.371c.768 0 1.537.008 2.305-.005.198-.004.23.061.227.237-.009.51-.025 1.021.078 1.525.251 1.23.957 1.924 2.189 2.154 1.134.212 2.263.172 3.384-.082 1.09-.247 1.771-1.01 1.948-2.209.179-1.22-.224-2.275-1.433-2.9-.196-.102-.396-.198-.599-.285-1.51-.654-3.06-1.203-4.594-1.797-1.151-.445-2.257-.97-3.207-1.776C1.348 10.963.579 9.348.546 7.383c-.03-1.753.462-3.32 1.631-4.65.99-1.125 2.217-1.887 3.657-2.27 2.02-.539 4.056-.606 6.073.016 1.527.471 2.864 1.26 3.87 2.537.731.93 1.128 2.003 1.308 3.164.093.596.119 1.197.114 1.8-.001.13-.024.182-.17.182-1.537-.006-3.074-.005-4.61-.001-.125 0-.171-.035-.18-.162-.03-.49-.036-.982-.155-1.463-.26-1.047-.908-1.72-1.936-2.026-.847-.252-1.707-.375-2.577-.124-.763.22-1.408.628-1.799 1.34-.586 1.069-.187 2.446.882 3.108.63.39 1.327.634 2.014.9 1.55.6 3.124 1.14 4.65 1.805 1.064.464 2.03 1.072 2.814 1.942.917 1.017 1.412 2.22 1.544 3.573.127 1.294.002 2.566-.426 3.797-.643 1.855-1.913 3.136-3.69 3.919-1.39.612-2.85.955-4.37 1.023-2.566.115-4.865-.625-6.873-2.22-1.21-.963-1.88-2.261-2.161-3.77-.14-.747-.162-1.5-.15-2.258.002-.15.06-.178.196-.177.781.006 1.562.003 2.343.003" mask="url(#prefix__d)"/>
        </g>
        <path fill="#000" d="M51.441 22.789l-2.748-7.91c-.067.049-.075.114-.094.17-.893 2.513-1.784 5.027-2.675 7.541-.07.198-.07.199.147.199h5.37zm5.911 9.105c-.854 0-1.709-.003-2.564.004-.144 0-.21-.035-.26-.182-.509-1.492-1.028-2.981-1.54-4.473-.035-.103-.081-.14-.193-.14-2.78.003-5.558.003-8.337-.001-.13 0-.161.063-.196.163-.519 1.477-1.044 2.95-1.558 4.429-.053.154-.12.205-.282.204-1.654-.006-3.308-.005-4.961 0-.161 0-.196-.019-.131-.186 2.497-6.423 4.99-12.847 7.483-19.272.695-1.79 1.391-3.58 2.082-5.373.048-.125.104-.178.247-.177 1.211.006 2.423.006 3.634 0 .126 0 .178.039.22.155 2.655 7.21 5.312 14.42 7.97 21.628.37 1.007.743 2.015 1.114 3.022.074.2.074.2-.146.2h-2.582zM82.612 21.593c0-3.369-.002-6.738.003-10.107 0-.166-.04-.212-.21-.212-1.832.007-3.664.003-5.496.008-.148 0-.198-.03-.197-.19.006-1.34.006-2.68 0-4.02 0-.149.045-.182.186-.181 5.484.003 10.968.003 16.452-.001.15 0 .18.045.18.185-.006 1.34-.007 2.68 0 4.02.002.164-.053.187-.197.186-1.833-.004-3.665 0-5.497-.007-.184-.001-.216.052-.216.224.004 6.72.004 13.44.003 20.16 0 .265.035.236-.234.236-1.518 0-3.037-.004-4.555.006-.196.001-.227-.06-.226-.236.005-3.357.004-6.714.004-10.07M63.17 19.376c0-4.088 0-8.177-.005-12.265 0-.176.038-.223.219-.222 1.518.008 3.037.004 4.556.005.279 0 .246-.041.246.241l.001 20.105c0 .309-.038.27.278.27 3.234.002 6.468.003 9.702-.003.189 0 .232.048.231.233-.008 1.316-.008 2.631 0 3.947 0 .175-.053.21-.217.21-4.931-.003-9.862-.004-14.793.001-.175 0-.224-.038-.223-.22.005-4.1.004-8.2.004-12.302M101.304 19.394v12.263c0 .237 0 .237-.238.237-1.525 0-3.05-.003-4.574.005-.174 0-.212-.053-.212-.218.003-8.194.003-16.388 0-24.582-.001-.173.051-.21.215-.21 1.537.007 3.074.007 4.61 0 .165 0 .203.043.203.204-.005 4.1-.004 8.2-.004 12.3M26.124 32.22c-.003.503.366.893.85.898.466.005.852-.396.85-.882-.001-.493-.374-.885-.844-.888-.475-.003-.854.383-.856.872m.845 1.125c-.641 0-1.133-.48-1.135-1.107-.002-.629.502-1.115 1.151-1.111.633.003 1.122.483 1.124 1.1.002.641-.486 1.12-1.14 1.118"/>
        <path fill="#000" d="M26.82 32.021c-.01.099-.002.182.135.163.114-.016.256-.017.254-.168-.002-.133-.123-.15-.24-.16-.14-.01-.167.06-.15.165m.461.234c.207.116.197.31.254.476.018.052-.001.089-.062.084-.083-.007-.19.043-.233-.073-.026-.07-.039-.143-.061-.213-.029-.089-.086-.145-.192-.155-.128-.012-.2.017-.18.156.007.054-.004.11.001.165.01.1-.039.124-.136.124-.105 0-.132-.041-.13-.133.003-.288.003-.576 0-.864-.001-.092.031-.138.132-.138.149.001.297-.006.445-.004.17.004.329.04.379.223.046.166-.034.282-.217.352"/>
    </g>
</svg>
