<svg xmlns="http://www.w3.org/2000/svg" viewBox="0 0 600 157.3"><path d="M41.1,157.3C16.4,157.3,0,141,0,125.7V31.6C0,16.3,16.6,0,41.1,0c24.2,0,40,16.3,40,31.6V60.7h-33V36.2c0-4-3.2-6.5-7-6.5-4.3,0-7.3,2.5-7.3,6.5v85c0,4,3.2,6.5,7.3,6.5,3.8,0,7-2.5,7-6.5V96.7H81.2v29.1C81.3,141,65.5,157.3,41.1,157.3Zm81.8-70v67.1H90.6V40.5h30.2l2.1,12c4.7-7.1,11.4-12,26.1-12V67.6C131.5,67.4,122.9,77,122.9,87.3Zm71.6,69c-21.5,0-38.9-11.1-38.9-27.8V68.4c0-17.1,17.6-28,38.9-28s38.9,11.1,38.9,28v60C233.4,145.4,215.8,156.3,194.5,156.3Zm6.8-86.5c0-3.8-3.2-5.5-7-5.5s-6.8,1.7-6.8,5.5v57.1c0,3.8,2.8,5.5,6.8,5.5,3.8,0,7-1.7,7-5.5Zm78,86.5c-23.6,0-37.5-11.1-37.5-27.8V116.9h29.3v9.7c0,3.8,2.8,6.5,7.6,6.5s7.4-1.9,7.4-8.4c0-10.1-7.4-13.1-24.5-22-15.8-7.9-19.5-19.1-19.5-31.2,0-23.4,16.9-30.9,36.9-30.9,21.7,0,36.6,11.1,36.6,28V79H286.5V70.3c0-3.8-2.1-6-6.8-6-5.1,0-7.4,2.2-7.4,7.8,0,8.4,4.7,9.2,17.1,15.7,23.3,11.6,26.9,26.1,26.9,37.8C316.3,141.6,305.7,156.3,279.3,156.3Zm81.8,0c-23.6,0-37.5-11.1-37.5-27.8V116.9h29.3v9.7c0,3.8,2.8,6.5,7.6,6.5s7.4-1.9,7.4-8.4c0-10.1-7.4-13.1-24.5-22-15.8-7.9-19.5-19.1-19.5-31.2,0-23.4,16.9-30.9,36.9-30.9,21.7,0,36.6,11.1,36.6,28V79H368.3V70.3c0-3.8-2.1-6-6.8-6-5.1,0-7.4,2.2-7.4,7.8,0,8.4,4.7,9.2,17.1,15.7,23.3,11.6,26.9,26.1,26.9,37.8C398.1,141.6,387.3,156.3,361.1,156.3ZM440.5,29.6V64.1h24.4v28H440.5v62.2H407.1V2.7h66V29.8l-32.6-.2Zm40,0V2.7h32.1V29.8l-32.1-.2Zm0,124.8V42.6h32.1V154.5H480.5Zm86-89.2v58.1c0,3.2,3.2,5.5,6.8,5.5h8.4v25.6H566.4c-20.4,0-31.8-14.1-31.8-28.3V65.2h-14V42.6h13.9V23.3h32V42.8h16.6V65.6l-16.6-.4Zm27-22.5A6.3,6.3,0,1,1,587,49a6.38,6.38,0,0,1,6.5-6.3Zm0,1.3a5.1,5.1,0,0,0,0,10.2,4.8,4.8,0,0,0,4.7-5.1,4.74,4.74,0,0,0-4.7-5.1Zm-1.1,8.4H591V46.1c.6,0,1.4-.2,2.4-.2a3.51,3.51,0,0,1,2.2.5,2,2,0,0,1,.6,1.4,1.42,1.42,0,0,1-1.3,1.4h0c.6.2.9.6,1.1,1.6a4.93,4.93,0,0,0,.5,1.6h-1.6a4.93,4.93,0,0,1-.5-1.6,1.15,1.15,0,0,0-1.3-.9h-.5l-.2,2.5Zm.2-3.7h.6c.8,0,1.4-.3,1.4-.9s-.5-.9-1.4-.9h-.8l.2,1.8Z"/></svg>