<svg xmlns="http://www.w3.org/2000/svg" xmlns:xlink="http://www.w3.org/1999/xlink" width="51" height="56" viewBox="0 0 51 56">
    <defs>
        <path id="prefix__a" d="M0 0.296L51 0.296 51 55.702 0 55.702z"/>
    </defs>
    <g fill="none" fill-rule="evenodd">
        <mask id="prefix__b" fill="#fff">
            <use xlink:href="#prefix__a"/>
        </mask>
        <path fill="#000" d="M35.798 27.314h-7.54v8.447c0 3.883 1.35 6.593 3.722 8.482v-1.165c-1.424-1.76-2.135-3.99-1.991-6.247v-2.217h2.857v9.69c0 3.529-.987 8.016-7.316 10.837-6-2.675-7.194-6.903-7.298-10.302 2.831-1.899 4.476-4.746 4.476-9.06v-1.165h4.64v-1.726h-10.9v11.217c.63-.404 1.211-.879 1.732-1.415v-8.076h2.753v2.217c0 2.943-.545 6.584-5.817 8.93-5.264-2.346-5.81-5.987-5.81-8.93v-7.765h11.67v2.976h1.732v-4.728H7.618v8.447c0 5.652 2.866 8.81 7.54 10.579.529-.198 1.04-.423 1.516-.656.814 5.177 4.034 8.197 8.856 10.018 4.814-1.82 8.034-4.84 8.857-9.949.45.225.917.423 1.41.613 4.676-1.726 7.55-4.927 7.55-10.579v-8.473h-7.55zm5.818 9.491c0 2.943-.546 6.584-5.818 8.931-.455-.196-.898-.421-1.325-.673.091-.681.143-1.367.156-2.054V32.871h-4.64v-3.823h11.627v7.757zM11.047 22.732v-.336c.196-.076.38-.18.545-.31.069-.05.105-.133.095-.217.06-.266.087-.538.078-.81v-6.455c.009-.257-.026-.514-.104-.76-.06-.085-.149-.146-.25-.172-.338-.06-.68-.082-1.022-.069v-.423h4.155v.423c-.342-.011-.684.012-1.021.07-.097.027-.182.084-.243.163-.084.205-.122.426-.112.647v7.576h1.125c.953.04 1.907-.04 2.84-.241.068-.147.12-.3.156-.458l.285-1.113h.468c-.104.665-.208 1.441-.303 2.339l-.46.069h-4.873l-1.36.077zM23.02 22.284v.448h-4.113v-.423c.337 0 .674-.032 1.005-.094.101-.022.19-.08.25-.164.079-.207.114-.427.105-.648v-6.79c.016-.257-.017-.514-.096-.76-.063-.086-.155-.147-.26-.172-.328-.058-.661-.08-.995-.07v-.422h4.112v.423c-.336-.012-.672.011-1.004.069-.096.027-.181.085-.242.164-.077.207-.113.427-.104.647v6.79c-.018.255.017.511.104.751.063.084.15.148.25.182.327.052.657.075.988.069zm-1.35-7.766v5.004-5.004zM24.595 22.732v-.423c.328.024.657-.014.97-.112.066-.014.12-.059.147-.12.067-.23.099-.469.095-.708 0-.587.044-1.096.044-1.527v-5.48c.016-.096.016-.196 0-.293-.068-.11-.156-.207-.26-.285-.086-.068-.187-.115-.294-.138-.243-.017-.486-.017-.728 0v-.405h2.598l.865 1.087 1.437 1.726 2.087 2.442c.666.776 1.203 1.389 1.61 1.829.26.293.476.526.65.69v-6.471c.002-.234-.03-.466-.096-.69-.03-.06-.083-.107-.147-.13-.33-.083-.672-.115-1.013-.095v-.423h3.186v.423c-.326-.016-.653.016-.97.095-.062.027-.111.076-.138.138-.066.23-.098.468-.095.708 0 .586-.044 1.095-.044 1.518v3.193c0 .656 0 1.872.044 3.658h-.78l-.173-.18-.112-.096-.26-.276c-.39-.423-.675-.742-.866-.966l-.865-1.105-4.952-5.746v6.739c-.002.232.027.465.086.69.028.064.082.114.147.138.314.095.643.13.97.103v.423h-1.411c-.494.017-1.091.017-1.732.07zM40.984 22.284v.448H36.87v-.423c.336.008.673-.015 1.005-.069.097-.029.185-.086.25-.163.08-.207.112-.428.096-.648v-6.816c.016-.257-.017-.514-.095-.76-.06-.085-.15-.147-.251-.172-.332-.058-.668-.08-1.005-.07v-.422h4.113v.423c-.334-.011-.667.012-.996.069-.101.021-.19.08-.251.164-.077.207-.112.427-.104.647v6.79c-.01.255.026.509.104.751.064.088.155.151.26.182.326.053.656.076.987.069zM51 21.524l-.268.622c-.514.25-1.054.44-1.61.569-1.24.256-2.523.227-3.75-.086-.58-.162-1.13-.418-1.627-.76-.857-.571-1.497-1.413-1.818-2.39-.16-.502-.238-1.026-.234-1.553-.02-1.346.565-2.63 1.593-3.503 1.196-.984 2.72-1.484 4.268-1.398.397.001.793.024 1.186.07.447.062.89.151 1.325.267l.961.233c-.092.233-.167.472-.225.716-.086.435-.138.877-.156 1.32h-.433v-.785c-.044-.446-.34-.828-.762-.984-.65-.236-1.342-.342-2.034-.31-.586-.01-1.17.069-1.732.232-.456.153-.875.4-1.229.725-.37.358-.665.786-.866 1.26-.24.612-.356 1.267-.337 1.924-.055 1.217.418 2.399 1.298 3.245.944.853 2.19 1.295 3.463 1.225.599.022 1.197-.048 1.775-.207.397-.122.773-.302 1.117-.535l.095.103zM9.307 21.524l-.277.622c-.512.259-1.052.456-1.61.586-1.238.257-2.517.227-3.74-.086-.586-.167-1.138-.429-1.637-.777-.448-.29-.846-.651-1.177-1.07-.293-.394-.519-.834-.667-1.302-.148-.504-.215-1.029-.199-1.554-.025-1.344.545-2.632 1.558-3.52 1.2-.984 2.726-1.482 4.277-1.398.396.001.792.024 1.186.07.447.062.889.151 1.325.267l.96.233c-.102.23-.18.47-.233.716-.075.437-.124.877-.147 1.32H8.5v-.785c-.046-.445-.341-.826-.761-.984-.651-.236-1.343-.342-2.035-.31-.585-.01-1.17.069-1.731.232-.46.153-.881.4-1.238.725-.371.358-.666.786-.866 1.26-.244.612-.362 1.266-.346 1.924-.046 1.216.426 2.394 1.298 3.245.944.853 2.19 1.295 3.463 1.225.602.026 1.204-.044 1.784-.207.391-.14.761-.335 1.1-.578l.138.146zM4.026.962V.514c.484.034.952.052 1.402.052.437.008.873-.009 1.307-.052.416.863.788 1.674 1.134 2.338l2.667 5.177 2.45-4.771C13.6 1.955 14.042 1.03 14.259.479c.493 0 .917.052 1.255.052.337 0 .866 0 1.524-.052v.449c-.34-.016-.68.007-1.013.069-.098.024-.186.078-.251.155-.082.203-.117.42-.104.639v6.696c-.016.25.016.503.095.742.067.084.157.147.26.18.333.062.673.086 1.013.07v.431c-.941-.034-1.608-.052-2-.052l-2.078.052V9.48c.342.016.685-.007 1.021-.07.096-.024.18-.078.243-.155.086-.204.122-.426.104-.647V1.903l-2.424 4.815c-.381.75-.676 1.354-.866 1.812-.19.457-.39.863-.701 1.596h-.303c-.045-.14-.103-.276-.173-.406l-.477-.983L6.06 2.11v4.66c0 .612 0 1.199.052 1.777-.018.252.018.505.104.742.06.092.153.157.26.181.334.062.673.085 1.013.07v.43L5.757 9.92l-1.731.052v-.432c.336.016.673-.007 1.004-.069.1-.026.19-.08.26-.155.077-.207.113-.427.103-.647V1.946c.01-.251-.026-.502-.103-.742-.064-.087-.156-.148-.26-.173C4.699.97 4.362.946 4.026.962zM18.977 9.945c.398 0 .995 0 1.783.043v-.423c-.29.001-.579-.019-.866-.06-.09-.02-.173-.06-.242-.121-.035-.044-.053-.1-.052-.155.028-.234.095-.462.2-.673l.761-1.726h4.078l.865 2.045c.06.118.095.247.104.38-.002.057-.023.111-.06.155-.065.058-.147.095-.234.103h-.952v.423l2.268-.043c.285 0 .796 0 1.532.043v-.423c-.242.01-.484-.017-.718-.077-.125-.075-.227-.182-.295-.31-.156-.277-.476-.959-.97-2.046L23.168.376h-.442c-.632 1.432-1.047 2.355-1.238 2.76l-1.731 3.772c-.528 1.095-.866 1.725-.918 1.88-.077.197-.188.378-.329.536-.072.07-.162.12-.26.146-.23.017-.462.017-.692 0v.423c.472.047.946.064 1.42.052zm3.575-7.688l1.732 4.012h-3.507l1.775-4.012zM33.971 1.937c.18-.235.32-.497.416-.776-.002-.081-.054-.153-.13-.181-.344-.053-.691-.076-1.039-.07V.515H36.724v.423c-.29-.008-.58.016-.866.069-.128.034-.25.086-.363.155-.205.195-.388.412-.546.647L32.898 4.76c-.25.365-.476.745-.676 1.139-.051.126-.078.26-.078.397V8.53c-.012.254.02.508.096.75.066.085.157.148.26.182.328.053.662.076.995.069v.422H29.4v-.422c.336.007.672-.016 1.004-.07.098-.024.184-.082.243-.163.086-.202.122-.42.104-.639V5.993c-.087-.181-.182-.363-.286-.535l-.719-1.148-1.792-2.528c-.14-.225-.306-.433-.493-.621-.107-.072-.223-.127-.346-.164-.286-.053-.576-.076-.866-.07V.48c.918 0 1.195.043 1.662.043.468 0 1.732 0 2.597-.043v.423c-.359-.005-.718.018-1.073.07-.08.026-.138.096-.147.18.077.268.196.521.355.751l2.095 3.374 2.233-3.34zM38.187 2.705c.27-.58.72-1.061 1.282-1.372.598-.319 1.268-.482 1.947-.474.488 0 .973.076 1.438.224.391.12.758.31 1.082.561.276.222.518.484.718.777.208.303.371.634.485.983.206.633.305 1.294.294 1.959.015.754-.127 1.503-.415 2.2-.255.595-.684 1.1-1.23 1.45-.589.355-1.268.535-1.956.518-.512.016-1.022-.06-1.506-.225-.456-.18-.869-.454-1.212-.802-.373-.39-.667-.846-.866-1.346-.156-.363-.269-.742-.338-1.13-.103-.422-.164-.853-.182-1.286-.004-.705.153-1.401.46-2.037zM36.63 7.201c.216.608.559 1.163 1.004 1.63.46.437 1.014.764 1.62.958.658.231 1.352.348 2.05.346 1.482.06 2.927-.467 4.018-1.467 1.04-.962 1.618-2.322 1.584-3.736 0-.445-.052-.888-.156-1.32-.086-.377-.229-.737-.424-1.07-.255-.426-.58-.805-.96-1.122-.463-.372-.996-.648-1.568-.811-.68-.216-1.39-.321-2.104-.311-.76-.018-1.518.105-2.233.362-.642.242-1.23.605-1.732 1.07-.487.444-.866.993-1.108 1.605-.444 1.245-.444 2.604 0 3.849l.009.017z" mask="url(#prefix__b)"/>
    </g>
</svg>
