<svg xmlns="http://www.w3.org/2000/svg" width="61" height="40" viewBox="0 0 61 40">
    <g fill="#000">
        <path d="M33.233 22.393c.144.058.13.362-.028.42-.618-.03-1.18-.044-1.754-.044-.675 0-1.293.014-1.926.043-.115-.057-.172-.332-.028-.419l.388-.072c.574-.101.618-.203.618-1.185v-5.91h-.029c-.388.794-.59 1.228-.862 1.806l-1.237 2.543c-.488 1.012-1.207 2.616-1.466 3.295-.057.058-.272.058-.373 0-.244-.78-.863-2.196-1.193-2.919l-1.28-2.775c-.272-.607-.66-1.517-.833-1.95h-.029c-.029.707-.057 1.835-.086 2.442-.029.881-.057 2.167-.057 3.352 0 .954.014 1.17.632 1.287l.474.086c.101.087.101.362-.014.42-.532-.03-.977-.044-1.51-.044-.459 0-.976.014-1.537.043-.13-.072-.13-.347-.043-.419l.244-.029c.69-.087.79-.303.891-1.185.1-.91.144-1.85.216-3.353.058-.982.144-2.181.144-3.063 0-.679-.216-.968-.776-1.07l-.489-.086c-.086-.1-.072-.376.058-.419.43.03.819.043 1.35.043.504 0 1.007 0 1.539-.043.057.867.416 1.618.79 2.4l1.581 3.337c.115.246.489.968.675 1.3.23-.418.417-.823.748-1.502l1.35-2.774c.46-.954.92-1.807 1.165-2.76.388.028.863.043 1.178.043.604 0 1.107-.015 1.51-.044.158.058.186.332.043.42l-.475.071c-.632.102-.776.333-.776 1.099 0 2.139.029 4.277.13 6.416.043.968.2 1.055.66 1.127l.417.072zm1.983-7.08c0-1.533-.129-1.562-.805-1.677l-.244-.044c-.1-.1-.086-.347.029-.404.575.029 1.222.043 1.854.043.646 0 1.294-.014 1.926-.043.115.057.13.303.029.404l-.317.044c-.675.087-.805.144-.805 1.676v3.31c0 1.994.604 3.67 2.602 3.67 1.882 0 2.659-1.43 2.659-3.627v-1.807c0-1.084-.015-2.428-.273-2.847-.13-.216-.36-.318-.72-.375l-.286-.044c-.13-.1-.116-.36.028-.404.489.029 1.035.043 1.596.043.603 0 .991-.014 1.523-.043.115.072.144.303.029.404l-.317.073c-.273.058-.531.115-.632.346-.201.434-.201 1.706-.201 2.847v1.72c0 1.315-.201 2.529-.949 3.338-.747.81-1.825 1.084-2.817 1.084-1.35 0-2.3-.29-2.96-.925-.647-.622-.949-1.633-.949-3.092v-3.67zm9.745 7.08c-.26-.303-.446-1.3-.432-2.197.087-.144.33-.158.446-.057.259.737 1.035 2.283 2.443 2.283 1.093 0 1.71-.665 1.71-1.546 0-.824-.387-1.49-1.465-2.096l-.618-.347c-1.078-.607-2.027-1.488-2.027-2.789 0-1.43 1.064-2.644 3.162-2.644.747 0 1.294.173 1.969.303.158.318.302 1.272.302 1.951-.072.13-.33.145-.46.043-.216-.75-.719-1.719-1.94-1.719-1.15 0-1.625.752-1.625 1.517 0 .608.417 1.257 1.366 1.763l.89.477c.935.491 1.97 1.387 1.97 2.847 0 1.647-1.25 2.818-3.335 2.818-1.322 0-2.07-.434-2.356-.607zm15.751-6.734c-.1.116-.359.13-.46.029-.244-.91-.89-2.11-2.788-2.11-1.825 0-3.665 1.3-3.665 4.263 0 3.078 1.912 4.581 3.766 4.581 1.81 0 2.602-1.214 3.004-2.153.13-.13.36-.073.431.058-.1.968-.489 1.921-.69 2.196-.172.03-.345.087-.503.13-.316.102-1.308.347-2.242.347-1.423 0-2.644-.289-3.68-.968-1.164-.766-2.04-2.081-2.04-3.974 0-1.691.747-3.006 1.81-3.83C54.72 13.42 56.172 13 57.623 13c.82 0 1.811.145 2.487.318.172.043.273.057.402.086.029.333.058 1.186.201 2.255zM0 27h1.243l1.434 3.915L4.146 27h1.159v4.75h-.689v-4.276L2.951 31.75h-.667L.682 27.5v4.25H0V27zm6.984 3.21c-.014.684.288 1.191 1.011 1.191.429 0 .774-.21.83-.684h.66c-.021.164-.05.434-.302.69-.155.165-.506.442-1.215.442-1.11 0-1.637-.645-1.637-1.691 0-.651.14-1.19.695-1.553.337-.223.759-.243.963-.243 1.58 0 1.545 1.31 1.531 1.848H6.984zm1.862-.434c.007-.315-.056-.973-.872-.973-.428 0-.948.243-.962.973h1.834zm4.054-2.77h.66v4.217c0 .073.014.356.028.527h-.66l-.014-.527c-.056.093-.134.23-.316.35-.288.183-.633.243-.872.243-.47 0-1.517-.23-1.517-1.678 0-1.256.766-1.802 1.595-1.802.758 0 1.011.42 1.096.559v-1.888zm-.246 2.126c-.14-.172-.4-.336-.773-.336-.97 0-.97 1.098-.97 1.322 0 .586.162 1.263.97 1.263 1.04 0 1.04-1.072 1.04-1.328 0-.48-.12-.744-.267-.921zm1.995-2.118h.794v.677h-.794v-.677zm.07 1.433h.66v3.303h-.66v-3.303zm3.92 1.06c-.013-.152-.062-.691-.702-.691-.913 0-.913.993-.913 1.243 0 .677.176 1.31.878 1.31.562 0 .752-.396.766-.718h.668c-.043.645-.556 1.184-1.427 1.184-.239 0-.787-.046-1.16-.428-.21-.23-.42-.578-.42-1.262 0-1.375.899-1.783 1.601-1.783.232 0 .76.046 1.082.408.26.282.281.552.295.737h-.667zm3.62 2.243c-.05-.165-.064-.322-.064-.494-.316.546-.793.6-1.089.6-.808 0-1.243-.428-1.243-.975 0-.262.098-.684.618-.966.38-.198.942-.218 1.223-.218.168 0 .274.007.477.02 0-.408 0-.585-.126-.73-.134-.164-.422-.217-.611-.217-.668 0-.703.427-.71.559h-.66c.02-.17.042-.401.245-.625.268-.277.766-.355 1.139-.355.513 0 1.06.151 1.25.487.113.197.12.355.12.506l-.028 1.579c0 .052.007.493.056.829h-.597zm-.457-1.625c-.267 0-1.272 0-1.272.671 0 .21.14.573.73.573.338 0 .591-.125.753-.356.147-.224.154-.408.168-.868-.12-.013-.218-.02-.38-.02zm2.192-3.118h.66v4.743h-.66v-4.743zm4.56-.007v2.94c0 .507.12.718.225.856.316.395.808.467 1.16.467 1.37 0 1.37-1.006 1.37-1.349V27h.68v2.928c0 .256-.006.789-.414 1.263-.498.585-1.271.658-1.637.658-.477 0-1.32-.126-1.791-.757-.155-.21-.296-.487-.296-1.198V27h.703zm4.715 1.83l-.008-.383h.66l.008.533c.077-.138.33-.598 1.131-.598.317 0 1.279.112 1.279 1.125v2.243h-.674V29.65c0-.217-.029-.415-.19-.565-.169-.152-.4-.224-.625-.224-.478 0-.921.322-.921.987v1.9h-.66v-2.92zm4.173-1.816h.794v.677h-.794v-.677zm.07 1.433h.66v3.303h-.66v-3.303zm1.518 0h.737l1.125 2.619 1.096-2.619h.73l-1.545 3.303h-.668l-1.475-3.303zm4.806 1.763c-.014.684.288 1.191 1.011 1.191.429 0 .773-.21.83-.684h.66c-.021.164-.05.434-.302.69-.155.165-.506.442-1.216.442-1.11 0-1.637-.645-1.637-1.691 0-.651.14-1.19.696-1.553.337-.223.758-.243.962-.243 1.581 0 1.546 1.31 1.532 1.848h-2.536zm1.861-.434c.008-.315-.056-.973-.871-.973-.429 0-.948.243-.962.973h1.833zm1.644-.657c0-.224-.014-.454-.035-.672h.668l.014.639c.126-.461.548-.613.843-.652.197-.026.345-.02.457-.013v.605c-.035-.013-.077-.02-.127-.026-.049-.007-.112-.007-.19-.007-.78 0-.962.435-.962 1v1.757h-.667v-2.631zm3.183 1.65c-.007.25.134.6.773.6.274 0 .478-.047.618-.211.07-.086.113-.198.113-.31 0-.322-.246-.38-.773-.493-.738-.158-1.356-.296-1.356-.986 0-.606.562-1 1.377-1 .443 0 1.06.118 1.272.513.09.184.09.342.09.48h-.674c.021-.5-.442-.54-.681-.54-.099 0-.717 0-.717.474 0 .303.316.375.499.42.977.218 1.187.27 1.398.455.197.17.267.401.267.612 0 .368-.218.684-.478.835-.309.177-.681.224-1.047.224-.717 0-1.384-.277-1.377-1.072h.696zm3.035-3.755h.794v.677h-.794v-.677zm.07 1.433h.661v3.303h-.66v-3.303zm1.37-.013h.626v-.69l.653-.198v.888h.787v.454h-.787v1.98c0 .165 0 .441.471.441.134 0 .26-.02.316-.033v.48c-.12.02-.309.04-.548.04-.604 0-.892-.165-.892-.704v-2.204H55v-.454zm4.434 3.335L58.928 33h-.682l.534-1.263-1.469-3.29h.745l1.103 2.606 1.124-2.605H61l-1.567 3.321zM3.805 36.467c1.423 0 1.742 1.05 1.742 1.747C5.547 39.19 4.96 40 3.75 40 2.573 40 2 39.236 2 38.26c0-.823.41-1.793 1.805-1.793zm-.042 3.068c.503 0 1.076-.339 1.076-1.341 0-.83-.41-1.268-1.034-1.268-.424 0-1.11.252-1.11 1.295 0 .683.31 1.314 1.068 1.314zm4.566-3.977c-.113-.007-.255-.014-.389-.014-.538 0-.538.252-.538.485v.525h.828v.451h-.828v2.882h-.658v-2.882h-.702v-.451h.702v-.379c0-.458.028-.624.148-.797.15-.212.432-.365.892-.365.191 0 .404.027.545.047v.498zm2.988 2.928c.015.332.057.95 1.232.95 1.062 0 1.197-.618 1.197-.857 0-.538-.46-.644-1.175-.81-.78-.18-1.126-.26-1.388-.425-.418-.266-.531-.625-.531-.943 0-.977.984-1.401 1.947-1.401.34 0 1.027.053 1.437.471.283.292.298.618.312.817h-.737c-.035-.598-.573-.73-1.076-.73-.708 0-1.133.298-1.133.776 0 .425.298.571.92.71 1.218.293 1.353.32 1.65.505.475.293.51.758.51.957 0 .85-.708 1.494-2.018 1.494-.39 0-1.182-.06-1.586-.545-.29-.352-.297-.737-.297-.97l.736.001zm5.58-2.019c1.422 0 1.741 1.05 1.741 1.747 0 .976-.588 1.786-1.798 1.786-1.176 0-1.749-.764-1.749-1.74 0-.823.41-1.793 1.805-1.793zm-.043 3.068c.502 0 1.076-.339 1.076-1.341 0-.83-.41-1.268-1.034-1.268-.424 0-1.111.252-1.111 1.295 0 .683.311 1.314 1.069 1.314zm3.398-2.981v2.144c0 .326.078.738.758.738.332 0 .644-.107.835-.372.149-.2.149-.459.149-.624v-1.886h.686v2.709c0 .066.015.438.022.624h-.694l-.014-.571c-.128.232-.368.604-1.133.604-.878 0-1.289-.471-1.289-1.129v-2.238h.68zm3.136-.014h.63v-.697l.659-.199v.896h.793v.458h-.793v2c0 .165 0 .444.474.444.135 0 .262-.02.319-.033v.485c-.12.02-.312.04-.552.04-.61 0-.9-.167-.9-.711v-2.225h-.63v-.458zm2.868-1.44h.672v1.945c.22-.352.659-.55 1.154-.55.375 0 .914.125 1.119.53.07.133.12.292.12.777v2.085h-.68v-1.972c0-.299 0-.943-.764-.943-.496 0-.743.286-.836.445-.113.186-.113.498-.113.704v1.766h-.672V35.1zm9.302 1.288c-.028-.166-.12-.83-1.104-.83-1.232 0-1.452 1.182-1.452 1.978 0 .904.277 1.88 1.445 1.88.311 0 .609-.073.828-.286.184-.186.227-.392.248-.505h.779c-.106.943-1.034 1.335-1.912 1.335-1.798 0-2.145-1.488-2.145-2.417 0-1.01.418-2.517 2.237-2.517.722 0 1.742.273 1.834 1.362h-.758zm3.775 3.499c-.05-.166-.065-.325-.065-.498-.318.55-.8.604-1.097.604-.814 0-1.253-.431-1.253-.983 0-.265.099-.69.623-.976.382-.2.948-.219 1.232-.219.17 0 .276.007.481.02 0-.412 0-.59-.127-.737-.135-.166-.425-.219-.616-.219-.673 0-.708.431-.715.564h-.666c.021-.172.043-.405.248-.63.269-.28.772-.359 1.147-.359.517 0 1.07.153 1.26.491.114.2.12.359.12.512l-.028 1.593c0 .053.008.498.057.837h-.601zm-.46-1.64c-.27 0-1.282 0-1.282.677 0 .213.141.578.736.578.34 0 .594-.126.758-.359.149-.226.156-.411.17-.876-.121-.014-.22-.02-.383-.02zm2.23-1.016c0-.226-.015-.458-.036-.677h.672l.015.644c.127-.465.552-.618.85-.658.197-.026.346-.02.46-.013v.611c-.036-.013-.078-.02-.128-.027-.05-.006-.114-.006-.191-.006-.786 0-.97.438-.97 1.009v1.773h-.673V37.23zm4.226-.764c1.423 0 1.741 1.05 1.741 1.747 0 .976-.587 1.786-1.798 1.786-1.175 0-1.749-.764-1.749-1.74 0-.823.411-1.793 1.806-1.793zm-.043 3.068c.503 0 1.077-.339 1.077-1.341 0-.83-.411-1.268-1.034-1.268-.425 0-1.112.252-1.112 1.295 0 .683.312 1.314 1.07 1.314zM48.09 35.1h.666v4.787h-.666V35.1zm1.855.006h.8v.684h-.8v-.684zm.07 1.448h.666v3.333h-.666v-3.333zm1.948.385l-.008-.385h.666l.007.538c.078-.14.333-.605 1.14-.605.319 0 1.288.113 1.288 1.136v2.264h-.68v-2.118c0-.22-.027-.419-.19-.571-.17-.153-.404-.226-.63-.226-.482 0-.928.325-.928.996v1.92h-.666v-2.949zm6.435 2.948c-.05-.166-.063-.325-.063-.498-.32.55-.8.604-1.098.604-.814 0-1.253-.431-1.253-.983 0-.265.099-.69.623-.976.383-.2.948-.219 1.232-.219.17 0 .276.007.481.02 0-.412 0-.59-.127-.737-.135-.166-.425-.219-.616-.219-.673 0-.708.431-.715.564h-.666c.021-.172.043-.405.248-.63.27-.28.772-.359 1.147-.359.517 0 1.07.153 1.26.491.114.2.121.359.121.512l-.029 1.593c0 .053.008.498.057.837h-.602zm-.46-1.64c-.269 0-1.281 0-1.281.677 0 .213.141.578.736.578.34 0 .594-.126.758-.359.148-.226.155-.411.17-.876-.12-.014-.22-.02-.383-.02zM18.872 10.474c-.195-.73-.546-1.408-1.043-2.016-.406-.497-.892-.984-1.529-1.531-.417-.358-.857-.702-1.282-1.035l-.41-.322c-1.687-1.333-3.618-2.588-5.74-3.73C7.713 1.22 6.386.637 4.69.006 4.681.002 4.672 0 4.662 0c-.016 0-.031.005-.045.014-.021.014-.034.038-.034.063v1.847l-2.265 2.4c-.014.014-.022.033-.022.051v2.433l-2.233.469c-.037.007-.063.04-.063.075v15.57c0 .042.036.077.08.077h4.583L18.67 23h.242c.044 0 .08-.035.08-.077V17.58L19 11.452c0-.317-.043-.645-.128-.978zM4.745 2.068c4.4 1.587 8.033 3.45 11.105 5.697.616.45 1.13.86 1.573 1.256.301.27.522.497.76.78.034.05.05.078.072.123.108.23.169.382.238.676.072.29.108.577.108.852v.226c-.073-.062-.202-.174-.322-.286-.046-.043-.087-.078-.126-.107-.349-.326-.724-.654-1.151-.942-.53-.356-1.097-.675-1.581-.94-.988-.54-2.093-1.083-3.376-1.661C9.321 6.515 7 5.67 4.745 5.088v-3.02zM18.59 22.281l-.36-.018c-.936-.05-1.904-.1-2.868-.122-.488-.011-.97-.024-1.448-.036l-1.209-.031-.501-.012c-.423-.01-.844-.02-1.277-.028-.139-.002-.284-.007-.43-.01-.153-.005-.307-.01-.458-.012l-.417-.007c-.46-.007-.908-.015-1.364-.029-.843-.026-1.72-.043-2.577-.06l-.935-.02v-1.713c1.695.02 3.422.105 5.092.187.696.034 1.385.068 2.065.097.776.034 1.553.076 2.324.117.415.023.828.046 1.24.067 1.123.056 2.205.168 3.123.272v1.358zm0-1.793c-2.31-.397-4.873-.58-7.353-.76l-1.037-.074-.399-.03c-.463-.035-.926-.07-1.393-.1-1.138-.075-2.381-.106-3.662-.131V17.51c1.448.053 3.113.13 4.582.304.172.02.345.036.517.052.13.011.258.023.386.037l.97.102c2.511.263 5.106.534 7.39 1.077v1.406zm0-2.628v.778c-2.443-.766-5.316-1.147-8.096-1.514l-.183-.024c-.122-.017-.244-.032-.367-.046-.182-.021-.364-.043-.544-.07-1.518-.233-3.274-.347-4.654-.42V14.68c1.416.096 2.679.223 3.755.377.395.057.785.12 1.174.185l.648.105c1.857.294 3.663.59 5.345.984.612.144 1.205.316 1.653.45.425.126.854.271 1.273.43l-.004.648zm.005-1.07c-.593-.286-1.224-.52-1.98-.78-1.382-.475-2.903-.792-4.374-1.1-.403-.083-.809-.16-1.216-.239-.204-.039-.408-.077-.613-.118l-.371-.072c-.479-.093-.973-.19-1.467-.275-1.244-.215-2.628-.36-3.828-.474v-1.88c1.435.15 2.718.334 3.816.548.456.088.913.188 1.354.285l.49.107.061.013c.584.125 1.187.255 1.77.397 1.735.423 3.56.891 5.136 1.552.455.19.856.377 1.225.571l-.003 1.465zm.002-1.853c-1.773-1.146-3.963-1.811-6.24-2.446-.892-.249-1.825-.486-2.771-.705l-.408-.098c-.177-.043-.354-.086-.532-.126-1.158-.255-2.504-.48-3.9-.65V9.027c2.34.324 4.751.876 7.579 1.738 1.709.521 3.51 1.118 5.101 1.956.434.228.851.5 1.174.715l-.003 1.5zm-2.648-3.372c-1.009-.492-2.145-.967-3.476-1.453-2.49-.911-5.09-1.594-7.727-2.03V6.187c1.443.309 2.61.614 3.668.958 1.339.435 2.494.847 3.532 1.26 1.155.46 2.28.914 3.346 1.433.941.459 2.031 1.028 2.978 1.78.085.065.156.12.207.163.052.042.09.077.125.108l-.002 1.263c-.768-.574-1.637-1.094-2.651-1.587z"/>
    </g>
</svg>
