<svg xmlns="http://www.w3.org/2000/svg" xmlns:xlink="http://www.w3.org/1999/xlink" width="100" height="34" viewBox="0 0 100 34">
    <defs>
        <path id="prefix__a" d="M0 0.057L100 0.057 100 33.936 0 33.936z"/>
    </defs>
    <g fill="none" fill-rule="evenodd">
        <mask id="prefix__b" fill="#fff">
            <use xlink:href="#prefix__a"/>
        </mask>
        <path fill="#000" d="M65.392 7.521L40.505 7.521 42.572.069 67.459.069zM48.528 20.103L61.904 20.103 63.971 12.655 39.08 12.655 33.18 33.931 44.695 33.931zM76.756 26.245c-.283-.14-.49-.397-.572-.702-.02-.086-.027-.174-.023-.262.005-.084.018-.168.04-.25l4.507-16.268c.083-.407.331-.761.686-.977.537-.222 1.119-.317 1.699-.277h12.431L97.611.057H80.152c-3.174 0-5.388.397-6.678 1.095s-2.182 1.984-2.698 3.849l-6.428 23.18c-.094.33-.151.67-.17 1.012-.015.344.02.687.103 1.02.328 1.173 1.135 2.153 2.222 2.702 1.353.702 2.864 1.044 4.388.992h18.253l2.063-7.451H77.875c-.385.026-.77-.046-1.12-.21zM7.976.057L.179 28.194c-.097.33-.157.669-.179 1.011-.017.347.017.695.1 1.032.33 1.171 1.136 2.15 2.221 2.702 1.355.699 2.865 1.04 4.389.992h12.975c3.174 0 5.388-.397 6.682-1.091 1.293-.694 2.182-1.984 2.698-3.849L37.092.057H25.585l-6.98 25.169c-.084.405-.332.759-.686.976-.538.222-1.12.317-1.702.277h-1.984c-.386.018-.77-.062-1.115-.234-.277-.14-.482-.388-.567-.686-.02-.087-.028-.177-.024-.266.005-.083.018-.165.04-.246L19.49.057H7.976z" mask="url(#prefix__b)"/>
        <path fill="#000" d="M99.103.057c.495 0 .897.401.897.897 0 .495-.402.896-.897.896s-.897-.401-.897-.896c-.01-.229.072-.452.227-.62.155-.168.37-.268.599-.277h.071zm0 1.587c.283 0 .539-.17.646-.433.108-.262.047-.563-.155-.762-.201-.199-.503-.257-.764-.146-.26.11-.428.368-.425.65-.027.359.24.672.599.699h.095l.004-.008zm.028-.58h-.167v.275h-.139V.545h.322c.182 0 .258.08.258.218v.088c.004.083-.043.16-.12.194l.219.298h-.167l-.206-.278zm0-.42h-.179v.294h.179c.087 0 .12-.036.12-.095V.755c0-.071-.025-.091-.108-.091l-.012-.02z" mask="url(#prefix__b)"/>
    </g>
</svg>
